<?xml version="1.0" encoding="UTF-8" standalone="no"?>
<svg width="20px" height="20px" viewBox="0 0 20 20" version="1.1" xmlns="http://www.w3.org/2000/svg" xmlns:xlink="http://www.w3.org/1999/xlink" xmlns:sketch="http://www.bohemiancoding.com/sketch/ns">
    <title>Untitled 30</title>
    <description>Created with Sketch (http://www.bohemiancoding.com/sketch)</description>
    <defs></defs>
    <g id="Page-1" stroke="none" stroke-width="1" fill="none" fill-rule="evenodd" sketch:type="MSPage">
        <path d="M10.2546565,0.439763516 C10.0926191,0.509208143 10.0000262,0.671245605 10.0000262,0.833283067 L10.0000262,6.24996394 L0.416667759,6.24996394 C0.185185671,6.24996394 0,6.43514961 0,6.6666317 L0,13.3333158 C0,13.5647979 0.185185671,13.7499836 0.416667759,13.7499836 L10.0000262,13.7499836 L10.0000262,19.1666645 C10.0000262,19.3287019 10.0926191,19.4907394 10.2546565,19.560184 C10.416694,19.6064804 10.6018797,19.5833322 10.7176207,19.4675912 L19.8843114,10.3009005 C19.953756,10.2083077 20.0000525,10.1157148 20.0000525,9.99997377 C20.0000525,9.88423273 19.953756,9.79163989 19.8843114,9.69904706 L10.7176207,0.532356352 C10.6018797,0.416615307 10.416694,0.393467098 10.2546565,0.439763516 Z M10.2546565,0.439763516" id="➡" fill="#FFFFFF" sketch:type="MSShapeGroup"></path>
    </g>
</svg>